<svg xmlns="http://www.w3.org/2000/svg" viewBox="0 0 41 28">
  <path d="M20.519 8.384c-3.087 0-5.589 2.502-5.589 5.589s2.502 5.589 5.589 5.589c3.087 0 5.589-2.502 5.589-5.589s-2.502-5.589-5.589-5.589zM20.519 23.288c-5.145 0-9.315-4.17-9.315-9.315s4.17-9.315 9.315-9.315c5.145 0 9.315 4.17 9.315 9.315s-4.17 9.315-9.315 9.315zM20.519 0c-0.006 0-0.014 0-0.021 0-9.258 0-17.18 5.723-20.42 13.825 3.226 8.427 11.162 14.175 20.441 14.175s17.215-5.749 20.442-13.879c-3.24-8.398-11.162-14.121-20.42-14.121-0.007 0-0.015 0-0.022 0z"/>
</svg>
